<svg xmlns="http://www.w3.org/2000/svg" viewBox="0 0 64 64">
  <defs>
    <linearGradient id="g" x1="0%" y1="0%" x2="100%" y2="100%">
      <stop offset="0%" stop-color="#3b82f6"/>
      <stop offset="100%" stop-color="#1d4ed8"/>
    </linearGradient>
  </defs>
  <rect width="64" height="64" rx="14" ry="14" fill="url(#g)"/>
  <path d="M22 16h13c5 0 9 3.6 9 8.2 0 3-1.6 5.4-4.2 6.7 3.5 1.2 5.7 4 5.7 7.6 0 5-4.2 8.5-10 8.5H22Zm6 6v8h7c2.4 0 4-1.6 4-4s-1.6-4-4-4Zm0 14v9h8.5c2.7 0 4.5-1.8 4.5-4.5s-1.8-4.5-4.5-4.5Z" fill="#fff"/>
</svg>
